<?xml version="1.0" encoding="UTF-8" standalone="no"?>
<!-- Created with Inkscape (http://www.inkscape.org/) -->

<svg
   width="1000"
   height="1000"
   viewBox="0 0 264.58333 264.58333"
   version="1.1"
   id="svg5"
   xml:space="preserve"
   inkscape:version="1.2.2 (b0a8486541, 2022-12-01)"
   sodipodi:docname="retip_monochrome.svg"
   xmlns:inkscape="http://www.inkscape.org/namespaces/inkscape"
   xmlns:sodipodi="http://sodipodi.sourceforge.net/DTD/sodipodi-0.dtd"
   xmlns="http://www.w3.org/2000/svg"
   xmlns:svg="http://www.w3.org/2000/svg"><sodipodi:namedview
     id="namedview7"
     pagecolor="#ffffff"
     bordercolor="#000000"
     borderopacity="0.25"
     inkscape:showpageshadow="2"
     inkscape:pageopacity="0.0"
     inkscape:pagecheckerboard="0"
     inkscape:deskcolor="#d1d1d1"
     inkscape:document-units="mm"
     showgrid="false"
     showguides="true"
     inkscape:zoom="0.54425795"
     inkscape:cx="273.76725"
     inkscape:cy="555.80263"
     inkscape:window-width="1920"
     inkscape:window-height="1011"
     inkscape:window-x="1920"
     inkscape:window-y="32"
     inkscape:window-maximized="1"
     inkscape:current-layer="layer3"><sodipodi:guide
       position="132.29166,197.89583"
       orientation="-1,0"
       id="guide1184"
       inkscape:locked="false"
       inkscape:label=""
       inkscape:color="rgb(0,134,229)" /><sodipodi:guide
       position="31.96875,132.29166"
       orientation="0,1"
       id="guide1190"
       inkscape:locked="false"
       inkscape:label=""
       inkscape:color="rgb(0,134,229)" /><sodipodi:guide
       position="85.937499,198.4375"
       orientation="0,1"
       id="guide1192"
       inkscape:locked="false"
       inkscape:label=""
       inkscape:color="rgb(0,134,229)" /><sodipodi:guide
       position="102.4375,66.145832"
       orientation="0,1"
       id="guide1194"
       inkscape:locked="false"
       inkscape:label=""
       inkscape:color="rgb(0,134,229)" /><sodipodi:guide
       position="198.4375,66.145832"
       orientation="-1,0"
       id="guide1196"
       inkscape:locked="false"
       inkscape:label=""
       inkscape:color="rgb(0,134,229)" /><sodipodi:guide
       position="66.145832,174.52083"
       orientation="-1,0"
       id="guide1198"
       inkscape:locked="false"
       inkscape:label=""
       inkscape:color="rgb(0,134,229)" /></sodipodi:namedview><defs
     id="defs2" /><g
     inkscape:groupmode="layer"
     id="layer3"
     inkscape:label="retip"
     style="display:inline"><path
       id="path916"
       style="display:inline;fill:#000000;fill-opacity:1;stroke-width:0.264583;stroke-opacity:0"
       inkscape:label="shape"
       d="M 59.53125 26.458333 L 39.6875 119.0625 L 13.229167 174.625 L 113.77083 251.35417 L 150.8125 251.35417 L 251.35417 174.625 L 224.89583 119.0625 L 205.05208 26.458333 L 142.875 72.760417 L 121.70833 72.760417 L 59.53125 26.458333 z M 67.46875 47.625 L 84.666667 79.375 L 58.208333 100.54167 L 67.46875 47.625 z M 197.11458 47.625 L 206.375 100.54167 L 179.91667 79.375 L 197.11458 47.625 z M 89.958333 116.41667 L 124.35417 142.875 L 132.29167 156.10417 L 140.22917 142.875 L 174.625 116.41667 L 214.3125 142.875 L 222.25 173.30208 L 211.66667 183.88542 L 198.4375 174.625 L 201.08333 190.5 L 150.8125 224.89583 L 136.26042 227.54167 L 137.58333 219.60417 L 149.48958 211.66667 L 140.22917 203.72917 L 124.35417 203.72917 L 115.09375 211.66667 L 127 219.60417 L 128.32292 227.54167 L 113.77083 224.89583 L 63.5 190.5 L 66.145833 174.625 L 52.916667 183.88542 L 42.333333 173.30208 L 50.270833 142.875 L 89.958333 116.41667 z M 71.4375 134.9375 L 82.020833 157.42708 L 119.0625 175.94792 L 97.895833 145.52083 L 71.4375 134.9375 z M 193.14583 134.9375 L 166.6875 145.52083 L 145.52083 175.94792 L 182.5625 157.42708 L 193.14583 134.9375 z " /></g></svg>
